HIERARCHY
ROOT Hips
{
 OFFSET 0.000000 0.000000 0.000000
 CHANNELS 6 Xposition Yposition Zposition Yrotation Xrotation Zrotation
 JOINT Chest
 {
  OFFSET 0.000000 9.585900 0.002600
  CHANNELS 3 Yrotation Xrotation Zrotation
  JOINT Chest2
  {
   OFFSET 0.000000 9.601200 -0.005300
   CHANNELS 3 Yrotation Xrotation Zrotation
   JOINT Chest3
   {
    OFFSET 0.000000 9.561800 0.000000
    CHANNELS 3 Yrotation Xrotation Zrotation
    JOINT Chest4
    {
     OFFSET 0.000000 9.552100 0.000000
     CHANNELS 3 Yrotation Xrotation Zrotation
     JOINT Neck
     {
      OFFSET 0.000000 14.453000 0.000000
      CHANNELS 3 Yrotation Xrotation Zrotation
      JOINT Head
      {
       OFFSET 0.000000 8.936500 -0.011300
       CHANNELS 3 Yrotation Xrotation Zrotation
       End Site
       {
        OFFSET 0.000000 17.073600 -0.006000
       }
      }
     }
     JOINT RightCollar
     {
      OFFSET -2.921100 9.558500 0.000000
      CHANNELS 3 Yrotation Xrotation Zrotation
      JOINT RightShoulder
      {
       OFFSET -13.519700 0.000000 0.000000
       CHANNELS 3 Yrotation Xrotation Zrotation
       JOINT RightElbow
       {
        OFFSET 0.000000 -29.696600 0.000000
        CHANNELS 3 Yrotation Xrotation Zrotation
        JOINT RightWrist
        {
         OFFSET 0.000000 -24.004700 0.000000
         CHANNELS 3 Yrotation Xrotation Zrotation
         End Site
         {
          OFFSET 0.000000 -17.728500 0.000000
         }
        }
       }
      }
     }
     JOINT LeftCollar
     {
      OFFSET 2.921100 9.558500 0.000000
      CHANNELS 3 Yrotation Xrotation Zrotation
      JOINT LeftShoulder
      {
       OFFSET 13.519700 0.000000 0.000000
       CHANNELS 3 Yrotation Xrotation Zrotation
       JOINT LeftElbow
       {
        OFFSET 0.000000 -29.696600 0.000000
        CHANNELS 3 Yrotation Xrotation Zrotation
        JOINT LeftWrist
        {
         OFFSET 0.000000 -24.004700 0.000000
         CHANNELS 3 Yrotation Xrotation Zrotation
         End Site
         {
          OFFSET 0.000000 -17.728500 0.000000
         }
        }
       }
      }
     }
    }
   }
  }
 }
 JOINT RightHip
 {
  OFFSET -7.771700 -0.012900 -0.001300
  CHANNELS 3 Yrotation Xrotation Zrotation
  JOINT RightKnee
  {
   OFFSET 0.000000 -40.869800 0.001200
   CHANNELS 3 Yrotation Xrotation Zrotation
   JOINT RightAnkle
   {
    OFFSET 0.000000 -39.717900 0.002100
    CHANNELS 3 Yrotation Xrotation Zrotation
    JOINT RightToe
    {
     OFFSET 0.000000 -4.965400 11.033500
     CHANNELS 3 Yrotation Xrotation Zrotation
     End Site
     {
      OFFSET 0.000000 -1.423100 5.872300
     }
    }
   }
  }
 }
 JOINT LeftHip
 {
  OFFSET 7.771700 -0.012900 -0.001300
  CHANNELS 3 Yrotation Xrotation Zrotation
  JOINT LeftKnee
  {
   OFFSET 0.000000 -40.869800 0.001200
   CHANNELS 3 Yrotation Xrotation Zrotation
   JOINT LeftAnkle
   {
    OFFSET 0.000000 -39.717900 0.002100
    CHANNELS 3 Yrotation Xrotation Zrotation
    JOINT LeftToe
    {
     OFFSET 0.000000 -4.965400 11.033500
     CHANNELS 3 Yrotation Xrotation Zrotation
     End Site
     {
      OFFSET 0.000000 -1.423100 5.872300
     }
    }
   }
  }
 }
}
MOTION
Frames: 9
Frame Time: 0.008333
-55.837451 54.407529 48.594673 -179.615026 -30.113253 -10.612257 -0.144273 12.168754 5.425856 -0.103558 7.097390 2.020329 -0.090191 8.871804 2.528275 -0.103547 7.097344 2.020344 4.873853 17.334373 -2.610527 5.841961 -7.298928 -3.930257 0.937860 0.316688 -3.233323 -13.964569 -2.178931 4.417785 47.447443 -73.123968 -32.824430 10.622562 -14.454984 -25.095268 -8.332276 3.351120 -3.375869 4.568895 -1.840018 -3.898193 -63.666284 -71.237106 73.544776 15.276748 -32.788751 7.722997 -18.280356 -36.131127 3.958471 -5.232846 87.367886 -8.212628 2.762434 -17.687306 1.198992 -0.051970 0.435734 -0.021220 -16.323273 -47.929329 16.617552 167.652686 78.805096 162.564962 -1.458306 -16.005346 1.261425 -0.622834 -2.749977 -0.255438
-55.843830 54.430830 48.594097 -179.543369 -30.108374 -10.578360 -0.189084 12.175523 5.382928 -0.107230 7.099946 2.021145 -0.094704 8.875021 2.529231 -0.107222 7.099906 2.021164 4.939321 17.294461 -2.660481 5.927091 -7.336944 -4.001248 0.941269 0.296270 -3.256536 -13.970370 -2.170590 4.423820 49.087165 -72.952407 -34.417424 10.763304 -14.731444 -25.248270 -8.320276 3.405224 -3.385401 4.697355 -1.900114 -3.974700 -64.297951 -71.226704 74.108566 15.256788 -33.437698 8.397823 -18.255401 -36.160744 3.868486 -5.826093 87.403891 -8.813394 2.779634 -17.718431 1.218463 -0.032194 0.436928 -0.014968 -16.314879 -47.933972 16.575029 167.727095 78.832944 162.578408 -1.476179 -15.985882 1.319487 -0.640612 -2.744828 -0.272363
-55.844248 54.456011 48.594278 -179.510680 -30.117216 -10.564151 -0.189847 12.185385 5.379250 -0.109665 7.103131 2.021261 -0.114055 8.875867 2.521385 -0.092979 7.107087 2.026770 5.004863 17.258422 -2.703735 6.010774 -7.370858 -4.064989 0.925599 0.281003 -3.270920 -14.011354 -2.174972 4.415659 50.777675 -72.786604 -36.002353 10.899846 -14.981152 -25.415424 -8.322141 3.414117 -3.389136 4.777462 -1.915015 -4.047783 -64.987238 -71.184000 74.790707 15.198072 -34.074376 9.074772 -18.240026 -36.166968 3.818687 -5.767176 87.425547 -8.786830 2.904878 -17.737193 1.206967 -0.100624 0.436079 -0.006094 -16.304936 -47.915829 16.570283 167.843398 78.861812 162.661653 -1.492088 -15.985834 1.345279 -0.642882 -2.730724 -0.272681
-55.845384 54.481517 48.595336 -179.480246 -30.127775 -10.549229 -0.189111 12.194724 5.374867 -0.110945 7.106447 2.020981 -0.131180 8.877650 2.514379 -0.078557 7.113486 2.030726 5.069741 17.227977 -2.741060 6.092402 -7.398798 -4.122169 0.907846 0.267370 -3.282223 -14.110076 -2.184154 4.398171 52.476816 -72.647482 -37.524881 11.019093 -15.211872 -25.607803 -8.338948 3.411235 -3.391599 4.812241 -1.917507 -4.101704 -65.737452 -71.095612 75.601678 15.124783 -34.695136 9.656476 -18.222864 -36.169978 3.785736 -6.194450 87.444774 -9.209059 2.825534 -17.753020 1.230484 -0.068860 0.435784 -0.007444 -16.286237 -47.897534 16.559552 167.941667 78.891099 162.731379 -1.510103 -15.981905 1.371573 -0.645647 -2.720004 -0.271206
-55.846759 54.507204 48.597351 -179.454884 -30.138569 -10.536566 -0.191390 12.204731 5.368201 -0.104609 7.108572 2.025464 -0.133025 8.883091 2.512639 -0.077044 7.113959 2.032952 5.133601 17.205434 -2.773391 6.171699 -7.418309 -4.173670 0.912935 0.258666 -3.300441 -14.244331 -2.191908 4.380103 54.176974 -72.543445 -39.026984 11.108718 -15.427590 -25.816684 -8.356425 3.408226 -3.394641 4.799713 -1.904463 -4.166713 -66.658230 -70.901212 76.644761 15.073975 -35.294686 10.083329 -18.206387 -36.170752 3.756932 -6.307670 87.458740 -9.331900 2.781631 -17.765191 1.257219 -0.102281 0.432519 -0.018940 -16.261719 -47.879507 16.548900 168.027782 78.920437 162.793570 -1.524004 -15.977839 1.399565 -0.655394 -2.709877 -0.268978
-55.842797 54.535408 48.597807 -179.462260 -30.172992 -10.547225 -0.167986 12.235881 5.389393 -0.097898 7.109107 2.029976 -0.114941 8.886788 2.522029 -0.078331 7.112625 2.032071 5.196413 17.192399 -2.799245 6.248293 -7.427624 -4.217869 0.899533 0.251513 -3.314229 -14.355752 -2.196127 4.351337 55.887696 -72.458875 -40.554760 11.168667 -15.646862 -26.026225 -8.328855 3.401280 -3.385420 4.716512 -1.866258 -4.247272 -67.759363 -70.578071 77.904583 15.068988 -35.881879 10.332079 -18.189250 -36.136581 3.761735 -6.310855 87.460837 -9.353767 2.822304 -17.766086 1.263420 -0.111559 0.430133 -0.022135 -16.240922 -47.834470 16.573953 168.095476 78.945651 162.853098 -1.500534 -15.953229 1.411882 -0.679833 -2.724439 -0.280355
-55.843439 54.561071 48.601184 -179.456148 -30.183980 -10.543896 -0.148063 12.243416 5.404568 -0.110500 7.110698 2.022100 -0.065181 8.883628 2.544466 -0.109563 7.111724 2.023289 5.257230 17.189283 -2.818404 6.321105 -7.426428 -4.254323 0.870313 0.250960 -3.322662 -14.402892 -2.198052 4.334158 57.635028 -72.358505 -42.190100 11.216208 -15.887988 -26.230343 -8.348695 3.398252 -3.388327 4.677528 -1.828925 -4.291844 -68.926868 -70.157823 79.236382 15.102644 -36.483680 10.417728 -18.179365 -36.132763 3.751584 -6.317349 87.466310 -9.375716 2.817196 -17.767236 1.283245 -0.111697 0.428780 -0.027470 -16.213405 -47.814361 16.576848 168.172454 78.974111 162.923713 -1.513226 -15.956393 1.423045 -0.674045 -2.710332 -0.278306
-55.849075 54.586852 48.602174 -179.412863 -30.202703 -10.535778 -0.159040 12.258251 5.394014 -0.109980 7.111838 2.022976 -0.064671 8.881327 2.550044 -0.117278 7.114472 2.021783 5.325065 17.193994 -2.829809 6.389490 -7.415006 -4.283460 0.870388 0.249393 -3.335061 -14.465359 -2.192170 4.318352 59.447157 -72.243084 -43.904286 11.273409 -16.155552 -26.431033 -8.359799 3.397153 -3.392419 4.654223 -1.790807 -4.320684 -70.131791 -69.655480 80.589989 15.153641 -37.121987 10.390131 -18.176985 -36.119791 3.706736 -6.392367 87.476935 -9.458151 2.755764 -17.776875 1.317900 -0.086983 0.429373 -0.032485 -16.177936 -47.788126 16.541616 168.240538 79.006697 162.974676 -1.528709 -15.954517 1.447210 -0.666633 -2.697591 -0.278756
-55.854843 54.611882 48.603385 -179.387416 -30.220673 -10.523091 -0.135987 12.252860 5.413369 -0.106511 7.112520 2.025566 -0.093666 8.890935 2.534886 -0.141939 7.121633 2.014076 5.410000 17.202915 -2.830366 6.455026 -7.394112 -4.304289 0.940251 0.237927 -3.339163 -14.599874 -2.157880 4.246374 61.355145 -72.150634 -45.692575 11.347492 -16.452895 -26.624492 -8.334388 3.388796 -3.383048 4.643672 -1.749953 -4.336606 -71.361586 -69.098699 81.935053 15.204751 -37.793072 10.323548 -18.166064 -36.110323 3.653297 -6.186522 87.485378 -9.252928 2.739158 -17.785289 1.330285 -0.104201 0.431667 -0.034946 -16.132045 -47.765880 16.509040 168.294579 79.035636 163.015848 -1.543424 -15.947870 1.476832 -0.667303 -2.691362 -0.280800
